<?xml version="1.0" standalone="no" ?>
<!DOCTYPE svg PUBLIC "-//W3C//DTD SVG 1.1//EN" "http://www.w3.org/Graphics/SVG/1.1/DTD/svg11.dtd">
<svg width="1000px" height="1000px" xmlns="http://www.w3.org/2000/svg" version="1.1" >
	<polygon points="0,0 1000,0 1000,1000 0,1000 " fill="transparent" stroke-width="1" stroke="rgb(0,0,0)" />
	<text x="35" y="65" fill="rgb(0,128,0)" font-size="40" font-family="Verdana" >2</text>
	<text x="135" y="65" fill="rgb(0,128,0)" font-size="40" font-family="Verdana" >5</text>
	<text x="235" y="65" fill="rgb(0,128,0)" font-size="40" font-family="Verdana" >2</text>
	<text x="335" y="65" fill="rgb(0,128,0)" font-size="40" font-family="Verdana" >1</text>
	<text x="435" y="65" fill="rgb(0,128,0)" font-size="40" font-family="Verdana" >3</text>
	<text x="535" y="65" fill="rgb(0,128,0)" font-size="40" font-family="Verdana" >1</text>
	<text x="635" y="65" fill="rgb(0,128,0)" font-size="40" font-family="Verdana" >5</text>
	<text x="735" y="65" fill="rgb(0,128,0)" font-size="40" font-family="Verdana" >2</text>
	<text x="835" y="65" fill="rgb(0,128,0)" font-size="40" font-family="Verdana" >3</text>
	<text x="935" y="65" fill="rgb(0,128,0)" font-size="40" font-family="Verdana" >4</text>
	<text x="35" y="165" fill="rgb(0,128,0)" font-size="40" font-family="Verdana" >4</text>
	<text x="135" y="165" fill="rgb(0,128,0)" font-size="40" font-family="Verdana" >4</text>
	<text x="235" y="165" fill="rgb(0,128,0)" font-size="40" font-family="Verdana" >8</text>
	<text x="335" y="165" fill="rgb(0,128,0)" font-size="40" font-family="Verdana" >3</text>
	<text x="435" y="165" fill="rgb(0,128,0)" font-size="40" font-family="Verdana" >5</text>
	<text x="535" y="165" fill="rgb(0,128,0)" font-size="40" font-family="Verdana" >2</text>
	<text x="635" y="165" fill="rgb(0,128,0)" font-size="40" font-family="Verdana" >6</text>
	<text x="735" y="165" fill="rgb(0,128,0)" font-size="40" font-family="Verdana" >3</text>
	<text x="835" y="165" fill="rgb(0,128,0)" font-size="40" font-family="Verdana" >7</text>
	<text x="935" y="165" fill="rgb(0,128,0)" font-size="40" font-family="Verdana" >4</text>
	<text x="35" y="265" fill="rgb(0,128,0)" font-size="40" font-family="Verdana" >5</text>
	<text x="135" y="265" fill="rgb(0,128,0)" font-size="40" font-family="Verdana" >7</text>
	<text x="235" y="265" fill="rgb(0,128,0)" font-size="40" font-family="Verdana" >9</text>
	<text x="335" y="265" fill="rgb(0,128,0)" font-size="40" font-family="Verdana" >13</text>
	<text x="435" y="265" fill="rgb(0,128,0)" font-size="40" font-family="Verdana" >13</text>
	<text x="535" y="265" fill="rgb(0,128,0)" font-size="40" font-family="Verdana" >9</text>
	<text x="635" y="265" fill="rgb(0,128,0)" font-size="40" font-family="Verdana" >9</text>
	<text x="735" y="265" fill="rgb(0,128,0)" font-size="40" font-family="Verdana" >8</text>
	<text x="835" y="265" fill="rgb(0,128,0)" font-size="40" font-family="Verdana" >4</text>
	<text x="935" y="265" fill="rgb(0,128,0)" font-size="40" font-family="Verdana" >1</text>
	<text x="35" y="365" fill="rgb(0,128,0)" font-size="40" font-family="Verdana" >3</text>
	<text x="135" y="365" fill="rgb(0,128,0)" font-size="40" font-family="Verdana" >9</text>
	<text x="235" y="365" fill="rgb(0,128,0)" font-size="40" font-family="Verdana" >11</text>
	<text x="335" y="365" fill="rgb(0,128,0)" font-size="40" font-family="Verdana" >16</text>
	<text x="435" y="365" fill="rgb(0,128,0)" font-size="40" font-family="Verdana" >14</text>
	<text x="535" y="365" fill="rgb(0,128,0)" font-size="40" font-family="Verdana" >10</text>
	<text x="635" y="365" fill="rgb(0,128,0)" font-size="40" font-family="Verdana" >12</text>
	<text x="735" y="365" fill="rgb(0,128,0)" font-size="40" font-family="Verdana" >8</text>
	<text x="835" y="365" fill="rgb(0,128,0)" font-size="40" font-family="Verdana" >7</text>
	<text x="935" y="365" fill="rgb(0,128,0)" font-size="40" font-family="Verdana" >2</text>
	<text x="35" y="465" fill="rgb(0,128,0)" font-size="40" font-family="Verdana" >1</text>
	<text x="135" y="465" fill="rgb(0,128,0)" font-size="40" font-family="Verdana" >5</text>
	<text x="235" y="465" fill="rgb(0,128,0)" font-size="40" font-family="Verdana" >6</text>
	<text x="335" y="465" fill="rgb(0,128,0)" font-size="40" font-family="Verdana" >10</text>
	<text x="435" y="465" fill="rgb(0,128,0)" font-size="40" font-family="Verdana" >20</text>
	<text x="535" y="465" fill="rgb(0,128,0)" font-size="40" font-family="Verdana" >15</text>
	<text x="635" y="465" fill="rgb(0,128,0)" font-size="40" font-family="Verdana" >9</text>
	<text x="735" y="465" fill="rgb(0,128,0)" font-size="40" font-family="Verdana" >11</text>
	<text x="835" y="465" fill="rgb(0,128,0)" font-size="40" font-family="Verdana" >3</text>
	<text x="935" y="465" fill="rgb(0,128,0)" font-size="40" font-family="Verdana" >3</text>
	<text x="35" y="565" fill="rgb(0,128,0)" font-size="40" font-family="Verdana" >1</text>
	<text x="135" y="565" fill="rgb(0,128,0)" font-size="40" font-family="Verdana" >10</text>
	<text x="235" y="565" fill="rgb(0,128,0)" font-size="40" font-family="Verdana" >8</text>
	<text x="335" y="565" fill="rgb(0,128,0)" font-size="40" font-family="Verdana" >11</text>
	<text x="435" y="565" fill="rgb(0,128,0)" font-size="40" font-family="Verdana" >20</text>
	<text x="535" y="565" fill="rgb(0,128,0)" font-size="40" font-family="Verdana" >17</text>
	<text x="635" y="565" fill="rgb(0,128,0)" font-size="40" font-family="Verdana" >9</text>
	<text x="735" y="565" fill="rgb(0,128,0)" font-size="40" font-family="Verdana" >13</text>
	<text x="835" y="565" fill="rgb(0,128,0)" font-size="40" font-family="Verdana" >6</text>
	<text x="935" y="565" fill="rgb(0,128,0)" font-size="40" font-family="Verdana" >5</text>
	<text x="35" y="665" fill="rgb(0,128,0)" font-size="40" font-family="Verdana" >2</text>
	<text x="135" y="665" fill="rgb(0,128,0)" font-size="40" font-family="Verdana" >5</text>
	<text x="235" y="665" fill="rgb(0,128,0)" font-size="40" font-family="Verdana" >12</text>
	<text x="335" y="665" fill="rgb(0,128,0)" font-size="40" font-family="Verdana" >10</text>
	<text x="435" y="665" fill="rgb(0,128,0)" font-size="40" font-family="Verdana" >16</text>
	<text x="535" y="665" fill="rgb(0,128,0)" font-size="40" font-family="Verdana" >11</text>
	<text x="635" y="665" fill="rgb(0,128,0)" font-size="40" font-family="Verdana" >11</text>
	<text x="735" y="665" fill="rgb(0,128,0)" font-size="40" font-family="Verdana" >7</text>
	<text x="835" y="665" fill="rgb(0,128,0)" font-size="40" font-family="Verdana" >9</text>
	<text x="935" y="665" fill="rgb(0,128,0)" font-size="40" font-family="Verdana" >5</text>
	<text x="35" y="765" fill="rgb(0,128,0)" font-size="40" font-family="Verdana" >4</text>
	<text x="135" y="765" fill="rgb(0,128,0)" font-size="40" font-family="Verdana" >10</text>
	<text x="235" y="765" fill="rgb(0,128,0)" font-size="40" font-family="Verdana" >8</text>
	<text x="335" y="765" fill="rgb(0,128,0)" font-size="40" font-family="Verdana" >7</text>
	<text x="435" y="765" fill="rgb(0,128,0)" font-size="40" font-family="Verdana" >8</text>
	<text x="535" y="765" fill="rgb(0,128,0)" font-size="40" font-family="Verdana" >13</text>
	<text x="635" y="765" fill="rgb(0,128,0)" font-size="40" font-family="Verdana" >7</text>
	<text x="735" y="765" fill="rgb(0,128,0)" font-size="40" font-family="Verdana" >5</text>
	<text x="835" y="765" fill="rgb(0,128,0)" font-size="40" font-family="Verdana" >8</text>
	<text x="935" y="765" fill="rgb(0,128,0)" font-size="40" font-family="Verdana" >3</text>
	<text x="35" y="865" fill="rgb(0,128,0)" font-size="40" font-family="Verdana" >1</text>
	<text x="135" y="865" fill="rgb(0,128,0)" font-size="40" font-family="Verdana" >9</text>
	<text x="235" y="865" fill="rgb(0,128,0)" font-size="40" font-family="Verdana" >4</text>
	<text x="335" y="865" fill="rgb(0,128,0)" font-size="40" font-family="Verdana" >8</text>
	<text x="435" y="865" fill="rgb(0,128,0)" font-size="40" font-family="Verdana" >6</text>
	<text x="535" y="865" fill="rgb(0,128,0)" font-size="40" font-family="Verdana" >4</text>
	<text x="635" y="865" fill="rgb(0,128,0)" font-size="40" font-family="Verdana" >5</text>
	<text x="735" y="865" fill="rgb(0,128,0)" font-size="40" font-family="Verdana" >6</text>
	<text x="835" y="865" fill="rgb(0,128,0)" font-size="40" font-family="Verdana" >7</text>
	<text x="935" y="865" fill="rgb(0,128,0)" font-size="40" font-family="Verdana" >5</text>
	<text x="35" y="965" fill="rgb(0,128,0)" font-size="40" font-family="Verdana" >5</text>
	<text x="135" y="965" fill="rgb(0,128,0)" font-size="40" font-family="Verdana" >4</text>
	<text x="235" y="965" fill="rgb(0,128,0)" font-size="40" font-family="Verdana" >5</text>
	<text x="335" y="965" fill="rgb(0,128,0)" font-size="40" font-family="Verdana" >5</text>
	<text x="435" y="965" fill="rgb(0,128,0)" font-size="40" font-family="Verdana" >4</text>
	<text x="535" y="965" fill="rgb(0,128,0)" font-size="40" font-family="Verdana" >3</text>
	<text x="635" y="965" fill="rgb(0,128,0)" font-size="40" font-family="Verdana" >1</text>
	<text x="735" y="965" fill="rgb(0,128,0)" font-size="40" font-family="Verdana" >1</text>
	<text x="835" y="965" fill="rgb(0,128,0)" font-size="40" font-family="Verdana" >2</text>
	<text x="935" y="965" fill="rgb(0,128,0)" font-size="40" font-family="Verdana" >2</text>
	<polyline points="0,0 100,0 200,0 300,0 400,0 500,0 600,0 700,0 800,0 900,0 1000,0 0,0 0,100 100,100 200,100 300,100 400,100 500,100 600,100 700,100 800,100 900,100 1000,100 0,100 0,200 100,200 200,200 300,200 400,200 500,200 600,200 700,200 800,200 900,200 1000,200 0,200 0,300 100,300 200,300 300,300 400,300 500,300 600,300 700,300 800,300 900,300 1000,300 0,300 0,400 100,400 200,400 300,400 400,400 500,400 600,400 700,400 800,400 900,400 1000,400 0,400 0,500 100,500 200,500 300,500 400,500 500,500 600,500 700,500 800,500 900,500 1000,500 0,500 0,600 100,600 200,600 300,600 400,600 500,600 600,600 700,600 800,600 900,600 1000,600 0,600 0,700 100,700 200,700 300,700 400,700 500,700 600,700 700,700 800,700 900,700 1000,700 0,700 0,800 100,800 200,800 300,800 400,800 500,800 600,800 700,800 800,800 900,800 1000,800 0,800 0,900 100,900 200,900 300,900 400,900 500,900 600,900 700,900 800,900 900,900 1000,900 0,900 " fill="transparent" stroke-width="0.5" stroke="rgb(0,0,0)" />
	<polyline points="0,0 0,100 0,200 0,300 0,400 0,500 0,600 0,700 0,800 0,900 0,1000 0,0 100,0 100,0 100,100 100,200 100,300 100,400 100,500 100,600 100,700 100,800 100,900 100,1000 100,0 200,0 200,0 200,100 200,200 200,300 200,400 200,500 200,600 200,700 200,800 200,900 200,1000 200,0 300,0 300,0 300,100 300,200 300,300 300,400 300,500 300,600 300,700 300,800 300,900 300,1000 300,0 400,0 400,0 400,100 400,200 400,300 400,400 400,500 400,600 400,700 400,800 400,900 400,1000 400,0 500,0 500,0 500,100 500,200 500,300 500,400 500,500 500,600 500,700 500,800 500,900 500,1000 500,0 600,0 600,0 600,100 600,200 600,300 600,400 600,500 600,600 600,700 600,800 600,900 600,1000 600,0 700,0 700,0 700,100 700,200 700,300 700,400 700,500 700,600 700,700 700,800 700,900 700,1000 700,0 800,0 800,0 800,100 800,200 800,300 800,400 800,500 800,600 800,700 800,800 800,900 800,1000 800,0 900,0 900,0 900,100 900,200 900,300 900,400 900,500 900,600 900,700 900,800 900,900 900,1000 900,0 1000,0 " fill="transparent" stroke-width="0.5" stroke="rgb(0,0,0)" />
</svg>
